<svg width="32" height="32" viewBox="0 0 32 32" fill="none" xmlns="http://www.w3.org/2000/svg">
<path d="M31.1706 13.9505L18.0622 0.824911C16.9711 -0.267674 15.0506 -0.282242 13.9449 0.824911L0.851099 13.9359C-0.283699 15.0722 -0.283699 16.9078 0.851099 18.0441L13.9449 31.1551C14.5123 31.7232 15.2543 32 15.9963 32C16.7383 32 17.4803 31.7232 18.0477 31.1551L31.1269 18.0586C32.2763 16.9515 32.2908 15.1159 31.1706 13.9505ZM16.0108 29.101L2.91701 15.99L16.0108 2.87897L29.1047 15.99L16.0108 29.101ZM10.1768 14.5478L10.1768 20.3749H13.0866L13.0866 16.0046H18.906L18.906 19.6465L23.9981 14.5478L18.906 9.44905L18.906 13.091H11.6317C10.8315 13.091 10.1768 13.7465 10.1768 14.5478Z" fill="#474643"/>
</svg>
