<svg width="378" height="205" viewBox="0 0 378 205" fill="none" xmlns="http://www.w3.org/2000/svg">
<path d="M278.863 201.331C333.563 201.331 377.906 156.988 377.906 102.288C377.906 47.5879 333.563 3.24475 278.863 3.24475C224.163 3.24475 179.82 47.5879 179.82 102.288C179.82 156.988 224.163 201.331 278.863 201.331Z" fill="#760FCA"/>
<path d="M297.659 117.975C298.492 133.005 306.657 141.269 320.567 141.269C334.477 141.269 344.12 132.623 344.12 119.097C344.12 95.7076 314.909 94.7681 314.909 83.3042C314.909 79.6421 316.952 77.5722 320.567 77.5722C323.719 77.5722 325.479 80.0163 325.943 84.1481C326.131 85.7482 326.87 86.5921 328.355 86.5921H340.686C342.266 86.5921 343.099 85.7483 343.004 84.0525C342.266 69.6828 334.753 61.6023 320.56 61.6023C306.367 61.6023 297.745 70.2481 297.745 83.7739C297.745 106.598 326.957 107.538 326.957 119.567C326.957 123.229 324.544 125.299 320.56 125.299C317.683 125.299 315.365 122.672 314.807 117.879C314.532 116.279 313.785 115.435 312.3 115.435H299.969C298.39 115.435 297.557 116.279 297.651 117.975" fill="white"/>
<path d="M290.988 90.4435L289.135 87.2472C288.728 86.5475 287.859 86.2612 287.115 86.5838L268.564 94.6075L271.629 64.564C271.765 63.226 270.709 62.0629 269.358 62.0629H251.525C250.174 62.0629 249.118 63.226 249.255 64.564L252.171 93.1673L230.224 77.7764C229.152 77.0244 227.664 77.3243 226.972 78.4352L219.496 90.4094C218.773 91.568 219.231 93.0969 220.475 93.6693L244.809 104.88L213.428 118.454C212.196 118.988 211.689 120.46 212.337 121.632L222.278 139.631C222.944 140.837 224.526 141.18 225.635 140.362L254.844 118.835L256.911 138.609C256.996 139.42 257.683 140.035 258.5 140.035H262.379C263.198 140.035 263.883 139.42 263.968 138.609L266.45 114.855L279.707 120.962C280.458 121.307 281.348 121.025 281.761 120.314L283.667 117.027C284.08 116.314 283.879 115.405 283.203 114.933L271.384 106.643L290.554 92.5153C291.207 92.0337 291.394 91.1432 290.988 90.4412V90.4435Z" fill="white"/>
<path d="M102.288 201.331C156.988 201.331 201.331 156.988 201.331 102.288C201.331 47.5877 156.988 3.24463 102.288 3.24463C47.5877 3.24463 3.24463 47.5877 3.24463 102.288C3.24463 156.988 47.5877 201.331 102.288 201.331Z" fill="#43C4F4"/>
<path d="M79.3057 107.128C80.5005 110.778 86.1467 112.062 89.3627 109.963C90.1401 109.456 90.7947 108.65 91.3266 107.799C91.8094 107.03 90.9706 106.097 90.1564 106.506C90.0419 106.563 89.9273 106.616 89.8086 106.67C88.3316 107.316 87.4642 106.543 87.8979 104.988C87.9388 104.845 87.9838 104.677 88.0452 104.46C90.2423 96.3959 92.6686 88.3888 94.1211 83.2335C94.3093 82.5707 93.7119 81.9529 93.0409 82.1083L85.2466 83.6222C84.9275 83.6959 84.6738 83.9332 84.5838 84.2482C83.6877 87.3537 82.0266 93.9246 79.6985 100.807C78.782 103.519 78.7984 105.573 79.3098 107.12L79.3057 107.128Z" fill="white"/>
<path d="M94.5531 78.9402C96.555 77.4975 97.0082 74.7051 95.5655 72.7032C94.1228 70.7014 91.3304 70.2481 89.3285 71.6908C87.3267 73.1335 86.8734 75.9259 88.3161 77.9278C89.7589 79.9296 92.5513 80.3829 94.5531 78.9402Z" fill="white"/>
<path d="M79.4363 72.7919L71.642 74.3058C71.3229 74.3794 71.0692 74.6168 70.9792 74.9318C70.0831 78.0373 65.7257 93.7814 63.3976 100.663C62.4811 103.376 62.4975 105.43 63.0089 106.976C64.2036 110.626 69.7763 112.034 72.9922 109.939C74.0805 109.231 74.5838 108.355 74.8129 107.631C74.9848 107.087 74.4733 106.571 73.9292 106.743C73.5814 106.85 73.1231 106.96 72.5217 107.05C71.9284 107.14 71.3842 106.69 71.3679 106.089C71.3515 105.504 71.3883 105.495 71.6788 104.44C73.876 96.3754 79.0722 79.0683 80.5247 73.9171C80.7129 73.2543 80.1155 72.6365 79.4445 72.7919H79.4363Z" fill="white"/>
<path d="M52.977 91.5475C53.0793 91.2406 53.1815 90.9215 53.2879 90.6023L61.2173 89.068C61.5937 88.9944 61.9005 88.7243 62.0192 88.3602L63.574 83.6181C63.8236 82.853 63.1607 82.0961 62.367 82.2516L55.5178 83.5772C57.8663 76.1225 60.4235 68.1563 62.5266 64.7972C66.4626 58.5085 70.8691 61.2908 71.401 61.659C69.6949 62.2891 68.4797 63.9257 68.4797 65.8487C68.4797 68.2709 69.9076 70.2921 73.4304 70.2921C77.9638 70.2921 80.3573 66.757 80.3573 63.0501C80.3573 58.1771 76.5072 55.1453 71.221 53.8483C64.4782 52.1953 57.0767 55.1617 53.5498 61.0044C51.1522 64.9772 47.6089 76.4662 45.3954 84.1173L45.3831 84.105C45.3054 84.3791 45.154 84.9029 44.9453 85.623L35.0521 87.5378C34.6757 87.6114 34.3688 87.8815 34.2501 88.2456L32.6954 92.9877C32.4458 93.7528 33.1086 94.5097 33.9024 94.3542L42.9241 92.6072L41.7621 96.6005C38.6976 107.12 34.5529 121.215 32.7322 126.902C32.544 127.483 33.0677 128.044 33.661 127.905L34.9825 127.59C39.7941 126.436 43.6238 122.807 45.0354 118.069C45.9028 115.155 49.3519 103.421 51.3117 96.7559L52.977 91.5515V91.5475Z" fill="white"/>
<path d="M131.215 118.49C131.264 118.347 131.313 118.208 131.358 118.065C132.589 113.932 133.845 109.746 133.845 109.746C133.845 109.746 134.746 113.052 140.081 113.052C145.416 113.052 153.063 109.746 155.58 100.508C158.145 91.0933 156.766 84.3873 150.559 82.4029C146.505 80.9955 140.752 85.4879 140.752 85.4879C141.01 84.5878 141.353 83.6918 141.521 83.0985C141.709 82.4357 141.112 81.8179 140.441 81.9733L132.373 83.4749C132.053 83.5486 131.8 83.7859 131.71 84.1009C131.063 86.3472 125.728 104.804 121.939 117.463C124.795 117.856 127.925 118.228 131.211 118.486L131.215 118.49ZM139.349 90.455C141.493 88.217 143.997 87.1941 146.014 88.0288C149.217 89.3544 149.974 94.8657 147.703 100.336C145.437 105.806 141.002 109.165 137.802 107.84C136.603 107.341 135.744 106.256 135.261 104.808L139.344 90.455H139.349Z" fill="white"/>
<path d="M101.163 114.984C102.03 112.083 102.73 109.746 102.73 109.746C102.73 109.746 103.63 113.052 108.965 113.052C114.301 113.052 121.948 109.746 124.464 100.508C127.029 91.0933 125.65 84.3873 119.444 82.4029C115.389 80.9955 109.636 85.4879 109.636 85.4879C109.894 84.5878 110.238 83.6918 110.405 83.0985C110.594 82.4357 109.996 81.8179 109.325 81.9733L101.257 83.4749C100.938 83.5486 100.684 83.7859 100.594 84.1009C100.001 86.163 95.5574 101.543 91.8873 113.899C95.0705 114.108 98.1228 114.714 101.159 114.984H101.163ZM108.237 90.455C110.381 88.217 112.885 87.1941 114.902 88.0288C118.106 89.3544 118.863 94.8657 116.592 100.336C114.325 105.806 109.89 109.165 106.69 107.84C105.492 107.341 104.632 106.256 104.15 104.808L108.233 90.455H108.237Z" fill="white"/>
<path d="M168.754 113.302C168.754 113.302 168.079 113.093 167.437 113.932C165.509 116.436 160.109 121.567 147.715 122.524C132.79 123.678 118.424 120.475 107.791 119.349C97.079 118.216 78.0453 113.875 58.7866 121.064C46.6144 125.605 44.5236 134.165 46.5448 141.034C49.1429 149.864 64.2733 152.769 73.1887 150.383C82.1409 147.986 92.3656 141.443 96.8376 130.094L87.5376 128.944C87.5376 128.944 81.7686 139.222 71.8794 142.389C63.2504 145.154 54.8546 141.439 55.227 136.971C55.8039 130.004 66.6014 121.702 102.598 127.77C123.539 131.301 139.97 132.369 147.601 132.369C169.372 132.369 173.766 126.78 173.766 126.78C173.766 126.78 177.002 117.385 168.758 113.306L168.754 113.302Z" fill="white"/>
<path d="M190.575 56.8636C197.452 70.3493 201.331 85.6193 201.331 101.795C201.331 117.971 197.452 133.24 190.575 146.726C183.698 133.241 179.82 117.971 179.82 101.795C179.82 85.6194 183.698 70.3492 190.575 56.8636Z" fill="#9977F7"/>
</svg>
